<?xml version="1.0" standalone="no"?>
<!DOCTYPE svg PUBLIC "-//W3C//DTD SVG 20010904//EN"
 "http://www.w3.org/TR/2001/REC-SVG-20010904/DTD/svg10.dtd">
<svg version="1.0" xmlns="http://www.w3.org/2000/svg"
 width="530.000000pt" height="96.000000pt" viewBox="0 0 530.000000 96.000000"
 preserveAspectRatio="xMidYMid meet">

<g transform="translate(0.000000,96.000000) scale(0.100000,-0.100000)"
fill="#000000" stroke="none">
<path d="M385 867 c-53 -25 -70 -53 -70 -116 0 -31 7 -69 15 -86 14 -28 18
-29 95 -33 51 -2 85 -8 94 -17 13 -12 17 -7 33 37 10 29 22 56 27 61 19 19 40
-3 56 -60 l17 -58 33 89 c19 49 39 94 45 100 18 18 42 -6 61 -61 32 -94 31
-93 114 -93 l73 0 17 51 c23 70 15 123 -25 163 -30 30 -33 31 -118 30 -64 -1
-101 -6 -139 -22 l-52 -21 -57 19 c-78 27 -180 35 -219 17z"/>
<path d="M711 594 c-18 -49 -39 -95 -46 -103 -22 -23 -42 -5 -56 49 l-13 51
-18 -35 c-10 -20 -23 -36 -30 -36 -6 0 -25 16 -44 35 l-33 35 -116 -1 c-119 0
-145 -4 -145 -20 0 -5 41 -9 90 -9 l90 0 57 -54 c32 -30 93 -76 136 -102 l78
-47 43 20 c44 22 178 126 208 162 16 18 29 21 100 21 46 -1 889 0 1873 1 985
0 1870 0 1968 0 l177 -1 0 -35 c0 -19 3 -35 6 -35 4 0 42 19 85 42 l78 42 -77
43 c-42 23 -80 43 -84 43 -5 0 -8 -18 -8 -40 l0 -40 -1898 0 c-1044 0 -2000 3
-2124 7 l-226 6 -18 45 -19 46 -34 -90z"/>
<path d="M1190 325 l0 -155 45 0 45 0 0 65 0 65 55 0 55 0 0 -65 0 -65 45 0
45 0 0 155 0 155 -45 0 -45 0 0 -50 0 -50 -55 0 -55 0 0 50 0 50 -45 0 -45 0
0 -155z"/>
<path d="M2120 325 l0 -155 40 0 40 0 0 155 0 155 -40 0 -40 0 0 -155z"/>
<path d="M2318 459 c-26 -13 -38 -26 -38 -40 0 -12 -8 -23 -20 -26 -13 -3 -20
-14 -20 -29 0 -17 6 -24 20 -24 18 0 20 -7 20 -69 0 -85 12 -101 76 -101 42 0
44 1 44 29 0 24 -3 28 -20 24 -18 -5 -20 0 -20 56 0 54 2 61 20 61 15 0 20 7
20 25 0 18 -5 25 -19 25 -16 0 -20 8 -23 44 l-3 44 -37 -19z"/>
<path d="M2450 325 l0 -155 40 0 40 0 0 73 c0 75 9 97 41 97 23 0 29 -20 29
-101 l0 -69 40 0 40 0 0 95 c0 82 -3 98 -20 115 -24 24 -77 26 -108 4 -22 -15
-22 -15 -22 40 l0 56 -40 0 -40 0 0 -155z"/>
<path d="M2740 325 l0 -155 40 0 c39 0 40 1 40 34 0 33 21 63 38 52 5 -3 17
-23 27 -46 17 -38 20 -40 62 -40 l45 0 -28 48 c-66 112 -64 96 -19 142 l39 40
-44 0 c-40 0 -49 -4 -82 -42 l-37 -43 -1 83 0 82 -40 0 -40 0 0 -155z"/>
<path d="M3030 455 c0 -22 4 -25 40 -25 36 0 40 3 40 25 0 23 -4 25 -40 25
-36 0 -40 -2 -40 -25z"/>
<path d="M3600 430 c0 -47 -1 -50 -19 -40 -88 47 -167 -50 -126 -156 24 -64
76 -83 130 -48 23 15 25 15 25 0 0 -12 9 -16 35 -16 l35 0 0 155 0 155 -40 0
-40 0 0 -50z m-12 -102 c17 -17 15 -83 -4 -99 -34 -28 -75 33 -55 84 11 29 38
36 59 15z"/>
<path d="M3890 325 l0 -155 120 0 120 0 0 40 0 40 -75 0 -75 0 0 115 0 115
-45 0 -45 0 0 -155z"/>
<path d="M4470 325 l0 -155 35 0 c24 0 35 5 35 15 0 19 14 19 30 0 21 -25 68
-18 101 14 26 26 29 37 29 89 0 49 -4 64 -25 87 -22 22 -32 26 -63 23 -20 -3
-45 -8 -54 -12 -16 -7 -18 -2 -18 43 l0 51 -35 0 -35 0 0 -155z m151 -12 c12
-31 0 -72 -25 -87 -14 -9 -21 -6 -37 13 -23 28 -24 49 -3 79 21 30 52 28 65
-5z"/>
<path d="M4248 400 c-68 -13 -92 -53 -37 -65 22 -5 36 -2 49 10 22 20 70 13
70 -10 0 -13 -55 -35 -88 -35 -7 0 -26 -7 -42 -15 -24 -13 -30 -22 -30 -50 0
-59 68 -84 134 -50 35 18 36 18 36 0 0 -10 11 -15 35 -15 l35 0 0 80 c0 93
-17 137 -55 145 -54 11 -71 12 -107 5z m72 -166 c-7 -7 -26 -14 -42 -14 -44 0
-35 39 12 55 32 11 35 10 38 -7 2 -11 -2 -26 -8 -34z"/>
<path d="M1571 374 c-53 -44 -54 -123 -1 -175 24 -25 36 -29 82 -29 54 0 118
28 118 51 0 12 -72 8 -102 -5 -17 -8 -58 24 -58 44 0 6 35 10 85 10 84 0 85 0
85 25 0 34 -25 82 -49 95 -11 5 -44 10 -75 10 -44 0 -60 -5 -85 -26z m113 -30
c30 -29 20 -44 -29 -44 -49 0 -53 5 -29 38 18 26 37 28 58 6z"/>
<path d="M1850 380 c-27 -27 -25 -37 10 -45 20 -4 37 -1 52 9 29 20 57 20 65
1 8 -21 5 -23 -72 -44 -71 -20 -85 -31 -85 -68 0 -54 88 -85 136 -48 25 19 34
19 34 0 0 -10 11 -15 35 -15 l35 0 0 90 c0 83 -2 93 -25 115 -21 22 -33 25
-95 25 -57 0 -74 -4 -90 -20z m120 -146 c-7 -7 -26 -14 -42 -14 -44 0 -35 39
12 55 32 11 35 10 38 -7 2 -11 -2 -26 -8 -34z"/>
<path d="M3035 391 c-3 -2 -5 -53 -5 -113 l0 -108 40 0 40 0 0 109 0 109 -35
4 c-20 2 -38 2 -40 -1z"/>
<path d="M3170 285 l0 -115 40 0 39 0 3 76 c2 59 7 79 20 87 32 21 48 -8 48
-89 l0 -74 40 0 40 0 0 86 c0 81 -10 120 -34 136 -21 15 -74 8 -100 -13 l-26
-20 0 20 c0 17 -6 21 -35 21 l-35 0 0 -115z"/>
<path d="M1003 123 c26 -2 67 -2 90 0 23 2 2 3 -48 3 -49 0 -68 -1 -42 -3z"/>
<path d="M1823 123 c372 -2 982 -2 1355 0 372 1 67 2 -678 2 -745 0 -1050 -1
-677 -2z"/>
<path d="M4073 123 c119 -2 315 -2 435 0 119 1 21 2 -218 2 -239 0 -337 -1
-217 -2z"/>
</g>
</svg>
